# xmcd
#
# Track frame offsets:
#	150
#	29347
#	39410
#	50427
#	62320
#	73882
#	82872
#	95927
#	107437
#	119982
#	134552
#	145930
#	159570
#	170785
#	181435
#	195815
#	215237
#	229640
#	243445
#	259697
#	276307
#
# Disc length: 3848
#
# Revision: 6
# Processed by: cddbd v1.5.1PL0 Copyright (c) Steve Scherf et al.
# Submitted via: Grip 3.0.7
# Normalized: r5:DSETVAR1
#
DISCID=3b0f0615
DTITLE=Various Artist - The Rhino Atlantic Remasters Collection - Disc 1
DYEAR=1992
DGENRE=R&B
TTITLE0=Ray Charles - What'd I Say
TTITLE1=LaVern Baker - Jim Dandy
TTITLE2=The Clovers - Devil Or Angel
TTITLE3=The Drifters - Up On The Roof
TTITLE4=Wilson Pickett - In The Midnight Hour
TTITLE5=Solomon Burke - Got To Get You Off My Mind
TTITLE6=Percy Sledge - When A Man Loves A Woman
TTITLE7=Clarence Carter - Slip Away
TTITLE8=Aretha Franklin - Chain Of Folls
TTITLE9=Soney and Cher - I Got You Babe
TTITLE10=The Rascals - Groovin'
TTITLE11=The Rascals - People Got To Be Free
TTITLE12=Dusty Springfield - Son Of A Preacher Man
TTITLE13=MC5 - Shakin' Street
TTITLE14=Doug Sahm - Is Anybody Goin' To San Antone
TTITLE15=Buddy Guy and Junior Wells - T-Bone Shuffle
TTITLE16=The Spinners - I'll Be Around
TTITLE17=Average White Band - Pick Up The Pieces - 
TTITLE18=Sister Sledge - We Are Family
TTITLE19=Manhattan Transfer - The Boy From New York City
TTITLE20=Firefall - You Are The Woman
EXTD=
EXTT0=Ray Charles\n
EXTT1=LaVern Baker\n
EXTT2=The Clovers\n
EXTT3=The Drifters\n
EXTT4=Wilson Pickett\n
EXTT5=Solomon Burke\n
EXTT6=Percy Sledge\n
EXTT7=Clarence Carter\n
EXTT8=Aretha Franklin\n
EXTT9=Sonny and Cher\n
EXTT10=The Rascals\n
EXTT11=The Rascals\n
EXTT12=Dusty Springfield\n
EXTT13=MC5\n
EXTT14=Doug Sahm\n
EXTT15=Buddy Guy and Junior Wells\n
EXTT16=The Spinners\n
EXTT17=Sister Sledge\n
EXTT18=Manhatan Transfer\n
EXTT19=The Manhattan Transfer\n
EXTT20=Firefall\n
PLAYORDER=
